<mxfile host="app.diagrams.net" agent="Mozilla/5.0 (Macintosh; Intel Mac OS X 10_15_7) AppleWebKit/537.36 (KHTML, like Gecko) Chrome/137.0.0.0 Safari/537.36" version="27.1.6">
  <diagram id="lSDsC8SnYudRtWLSKoH4" name="Page-1">
    <mxGraphModel dx="1551" dy="1151" grid="1" gridSize="10" guides="1" tooltips="1" connect="1" arrows="1" fold="1" page="1" pageScale="1" pageWidth="850" pageHeight="1100" math="0" shadow="0">
      <root>
        <mxCell id="0" />
        <mxCell id="1" parent="0" />
        <mxCell id="2" value="&quot;Front-end (PWA / CRM UI)&quot;" style="shape=umlLifeline;perimeter=lifelinePerimeter;whiteSpace=wrap;container=1;dropTarget=0;collapsible=0;recursiveResize=0;outlineConnect=0;portConstraint=eastwest;newEdgeStyle={&quot;edgeStyle&quot;:&quot;elbowEdgeStyle&quot;,&quot;elbow&quot;:&quot;vertical&quot;,&quot;curved&quot;:0,&quot;rounded&quot;:0};size=65;" parent="1" vertex="1">
          <mxGeometry width="225" height="1482" as="geometry" />
        </mxCell>
        <mxCell id="3" value="&quot;Azure API Management (APIM)&quot;" style="shape=umlLifeline;perimeter=lifelinePerimeter;whiteSpace=wrap;container=1;dropTarget=0;collapsible=0;recursiveResize=0;outlineConnect=0;portConstraint=eastwest;newEdgeStyle={&quot;edgeStyle&quot;:&quot;elbowEdgeStyle&quot;,&quot;elbow&quot;:&quot;vertical&quot;,&quot;curved&quot;:0,&quot;rounded&quot;:0};size=65;" parent="1" vertex="1">
          <mxGeometry x="550" width="257" height="1482" as="geometry" />
        </mxCell>
        <mxCell id="4" value="&quot;Azure Function endpoints&quot;" style="shape=umlLifeline;perimeter=lifelinePerimeter;whiteSpace=wrap;container=1;dropTarget=0;collapsible=0;recursiveResize=0;outlineConnect=0;portConstraint=eastwest;newEdgeStyle={&quot;edgeStyle&quot;:&quot;elbowEdgeStyle&quot;,&quot;elbow&quot;:&quot;vertical&quot;,&quot;curved&quot;:0,&quot;rounded&quot;:0};size=65;" parent="1" vertex="1">
          <mxGeometry x="1046" width="219" height="1482" as="geometry" />
        </mxCell>
        <mxCell id="5" value="&quot;Cosmos DB&quot;" style="shape=umlLifeline;perimeter=lifelinePerimeter;whiteSpace=wrap;container=1;dropTarget=0;collapsible=0;recursiveResize=0;outlineConnect=0;portConstraint=eastwest;newEdgeStyle={&quot;edgeStyle&quot;:&quot;elbowEdgeStyle&quot;,&quot;elbow&quot;:&quot;vertical&quot;,&quot;curved&quot;:0,&quot;rounded&quot;:0};size=65;" parent="1" vertex="1">
          <mxGeometry x="1444" width="150" height="1482" as="geometry" />
        </mxCell>
        <mxCell id="6" value="&quot;Azure AI Search&quot;" style="shape=umlLifeline;perimeter=lifelinePerimeter;whiteSpace=wrap;container=1;dropTarget=0;collapsible=0;recursiveResize=0;outlineConnect=0;portConstraint=eastwest;newEdgeStyle={&quot;edgeStyle&quot;:&quot;elbowEdgeStyle&quot;,&quot;elbow&quot;:&quot;vertical&quot;,&quot;curved&quot;:0,&quot;rounded&quot;:0};size=65;" parent="1" vertex="1">
          <mxGeometry x="1644" width="150" height="1482" as="geometry" />
        </mxCell>
        <mxCell id="7" value="&quot;Azure OpenAI GPT-4o mini&quot;" style="shape=umlLifeline;perimeter=lifelinePerimeter;whiteSpace=wrap;container=1;dropTarget=0;collapsible=0;recursiveResize=0;outlineConnect=0;portConstraint=eastwest;newEdgeStyle={&quot;edgeStyle&quot;:&quot;elbowEdgeStyle&quot;,&quot;elbow&quot;:&quot;vertical&quot;,&quot;curved&quot;:0,&quot;rounded&quot;:0};size=65;" parent="1" vertex="1">
          <mxGeometry x="1844" width="228" height="1482" as="geometry" />
        </mxCell>
        <mxCell id="8" value="&quot;Azure Key Vault&quot;" style="shape=umlLifeline;perimeter=lifelinePerimeter;whiteSpace=wrap;container=1;dropTarget=0;collapsible=0;recursiveResize=0;outlineConnect=0;portConstraint=eastwest;newEdgeStyle={&quot;edgeStyle&quot;:&quot;elbowEdgeStyle&quot;,&quot;elbow&quot;:&quot;vertical&quot;,&quot;curved&quot;:0,&quot;rounded&quot;:0};size=65;" parent="1" vertex="1">
          <mxGeometry x="2122" width="150" height="1482" as="geometry" />
        </mxCell>
        <mxCell id="9" value="alt" style="shape=umlFrame;dashed=1;pointerEvents=0;dropTarget=0;strokeColor=#B3B3B3;height=20;width=30" parent="1" vertex="1">
          <mxGeometry x="1027" y="395" width="942" height="457" as="geometry" />
        </mxCell>
        <mxCell id="10" value="[Ingest Request (/ingest)]" style="text;strokeColor=none;fillColor=none;align=center;verticalAlign=middle;whiteSpace=wrap;" parent="9" vertex="1">
          <mxGeometry x="30" width="912" height="20" as="geometry" />
        </mxCell>
        <mxCell id="11" value="alt" style="shape=umlFrame;dashed=1;pointerEvents=0;dropTarget=0;strokeColor=#B3B3B3;height=20;width=30" parent="1" vertex="1">
          <mxGeometry x="947" y="862" width="1022" height="213" as="geometry" />
        </mxCell>
        <mxCell id="12" value="[Summary / Ask Question Request (/summary &amp; /askQuestion)]" style="text;strokeColor=none;fillColor=none;align=center;verticalAlign=middle;whiteSpace=wrap;" parent="11" vertex="1">
          <mxGeometry x="30" width="992" height="20" as="geometry" />
        </mxCell>
        <mxCell id="13" value="Sends HTTPS POST /ingest, GET /summary, GET/POST /askQuestion" style="verticalAlign=bottom;edgeStyle=elbowEdgeStyle;elbow=vertical;curved=0;rounded=0;endArrow=block;" parent="1" source="2" target="3" edge="1">
          <mxGeometry relative="1" as="geometry">
            <Array as="points">
              <mxPoint x="404" y="101" />
            </Array>
          </mxGeometry>
        </mxCell>
        <mxCell id="14" value="Attaches AAD JWT in Authorization: Bearer ..." style="curved=1;endArrow=block;" parent="1" source="2" target="2" edge="1">
          <mxGeometry relative="1" as="geometry">
            <Array as="points">
              <mxPoint x="164" y="147" />
              <mxPoint x="164" y="177" />
            </Array>
          </mxGeometry>
        </mxCell>
        <mxCell id="15" value="Validates the JWT (&lt;validate-jwt&gt; policy)" style="curved=1;endArrow=block;" parent="1" source="3" target="3" edge="1">
          <mxGeometry relative="1" as="geometry">
            <Array as="points">
              <mxPoint x="730" y="223" />
              <mxPoint x="730" y="253" />
            </Array>
          </mxGeometry>
        </mxCell>
        <mxCell id="16" value="Adds throttling / CORS headers" style="curved=1;endArrow=block;" parent="1" source="3" target="3" edge="1">
          <mxGeometry relative="1" as="geometry">
            <Array as="points">
              <mxPoint x="730" y="299" />
              <mxPoint x="730" y="329" />
            </Array>
          </mxGeometry>
        </mxCell>
        <mxCell id="17" value="Forwards the request to the Function App (private VNet)" style="verticalAlign=bottom;edgeStyle=elbowEdgeStyle;elbow=vertical;curved=0;rounded=0;endArrow=block;" parent="1" source="3" target="4" edge="1">
          <mxGeometry relative="1" as="geometry">
            <Array as="points">
              <mxPoint x="926" y="375" />
            </Array>
          </mxGeometry>
        </mxCell>
        <mxCell id="18" value="Handles /ingest" style="curved=1;endArrow=block;" parent="1" source="4" target="4" edge="1">
          <mxGeometry relative="1" as="geometry">
            <Array as="points">
              <mxPoint x="1207" y="466" />
              <mxPoint x="1207" y="496" />
            </Array>
          </mxGeometry>
        </mxCell>
        <mxCell id="19" value="" style="curved=1;endArrow=block;" parent="1" source="4" target="4" edge="1">
          <mxGeometry relative="1" as="geometry">
            <Array as="points">
              <mxPoint x="1207" y="542" />
              <mxPoint x="1207" y="572" />
            </Array>
            <mxPoint as="offset" />
          </mxGeometry>
        </mxCell>
        <mxCell id="20" value="" style="curved=1;endArrow=block;" parent="1" source="4" target="4" edge="1">
          <mxGeometry relative="1" as="geometry">
            <Array as="points">
              <mxPoint x="1207" y="618" />
              <mxPoint x="1207" y="648" />
            </Array>
            <mxPoint as="offset" />
          </mxGeometry>
        </mxCell>
        <mxCell id="21" value="Sends text to Azure OpenAI GPT-4o mini with a function-calling schema" style="verticalAlign=bottom;edgeStyle=elbowEdgeStyle;elbow=vertical;curved=0;rounded=0;endArrow=block;" parent="1" source="4" target="7" edge="1">
          <mxGeometry relative="1" as="geometry">
            <Array as="points">
              <mxPoint x="1565" y="694" />
            </Array>
          </mxGeometry>
        </mxCell>
        <mxCell id="22" value="Returns structured JSON" style="verticalAlign=bottom;edgeStyle=elbowEdgeStyle;elbow=vertical;curved=0;rounded=0;dashed=1;dashPattern=2 3;endArrow=block;" parent="1" source="7" target="4" edge="1">
          <mxGeometry relative="1" as="geometry">
            <Array as="points">
              <mxPoint x="1568" y="740" />
            </Array>
          </mxGeometry>
        </mxCell>
        <mxCell id="23" value="Saves full JSON" style="verticalAlign=bottom;edgeStyle=elbowEdgeStyle;elbow=vertical;curved=0;rounded=0;endArrow=block;" parent="1" source="4" target="5" edge="1">
          <mxGeometry relative="1" as="geometry">
            <Array as="points">
              <mxPoint x="1346" y="786" />
            </Array>
          </mxGeometry>
        </mxCell>
        <mxCell id="24" value="Flattens note (string) and uploads to Azure AI Search" style="verticalAlign=bottom;edgeStyle=elbowEdgeStyle;elbow=vertical;curved=0;rounded=0;endArrow=block;" parent="1" source="4" target="6" edge="1">
          <mxGeometry relative="1" as="geometry">
            <Array as="points">
              <mxPoint x="1446" y="832" />
            </Array>
          </mxGeometry>
        </mxCell>
        <mxCell id="25" value="Builds prompt (“Summarise child X” or user’s question)" style="curved=1;endArrow=block;" parent="1" source="4" target="4" edge="1">
          <mxGeometry relative="1" as="geometry">
            <Array as="points">
              <mxPoint x="1207" y="933" />
              <mxPoint x="1207" y="963" />
            </Array>
          </mxGeometry>
        </mxCell>
        <mxCell id="26" value="Calls Azure OpenAI with dataSources pointing to Search index (RAG)" style="verticalAlign=bottom;edgeStyle=elbowEdgeStyle;elbow=vertical;curved=0;rounded=0;endArrow=block;" parent="1" source="4" target="7" edge="1">
          <mxGeometry relative="1" as="geometry">
            <Array as="points">
              <mxPoint x="1565" y="1009" />
            </Array>
          </mxGeometry>
        </mxCell>
        <mxCell id="27" value="Retrieves filtered notes (childId eq &#39;C123&#39;) and returns answer + citations" style="verticalAlign=bottom;edgeStyle=elbowEdgeStyle;elbow=vertical;curved=0;rounded=0;dashed=1;dashPattern=2 3;endArrow=block;" parent="1" source="7" target="4" edge="1">
          <mxGeometry relative="1" as="geometry">
            <Array as="points">
              <mxPoint x="1568" y="1055" />
            </Array>
          </mxGeometry>
        </mxCell>
        <mxCell id="28" value="JSON or plain-text result" style="verticalAlign=bottom;edgeStyle=elbowEdgeStyle;elbow=vertical;curved=0;rounded=0;endArrow=block;" parent="1" source="4" target="3" edge="1">
          <mxGeometry relative="1" as="geometry">
            <Array as="points">
              <mxPoint x="929" y="1111" />
            </Array>
          </mxGeometry>
        </mxCell>
        <mxCell id="29" value="Returns result over HTTPS" style="verticalAlign=bottom;edgeStyle=elbowEdgeStyle;elbow=vertical;curved=0;rounded=0;endArrow=block;" parent="1" source="3" target="2" edge="1">
          <mxGeometry relative="1" as="geometry">
            <Array as="points">
              <mxPoint x="407" y="1157" />
            </Array>
          </mxGeometry>
        </mxCell>
        <mxCell id="30" value="Browser renders the summary or answer" style="curved=1;endArrow=block;" parent="1" source="2" target="2" edge="1">
          <mxGeometry relative="1" as="geometry">
            <Array as="points">
              <mxPoint x="164" y="1203" />
              <mxPoint x="164" y="1233" />
            </Array>
          </mxGeometry>
        </mxCell>
        <mxCell id="31" value="Connection strings live in Azure Key Vault (Functions read via managed identity)" style="verticalAlign=bottom;edgeStyle=elbowEdgeStyle;elbow=vertical;curved=0;rounded=0;endArrow=block;" parent="1" source="8" target="4" edge="1">
          <mxGeometry relative="1" as="geometry">
            <Array as="points">
              <mxPoint x="1688" y="1328" />
            </Array>
          </mxGeometry>
        </mxCell>
        <mxCell id="32" value="Secrets &amp; Governance" style="fillColor=#ffff88;strokeColor=#9E916F;" parent="1" vertex="1">
          <mxGeometry x="2106" y="1253" width="182" height="49" as="geometry" />
        </mxCell>
        <mxCell id="33" value="All services (OpenAI, Cosmos, Search) are behind Private Endpoints inside the VNet" style="fillColor=#ffff88;strokeColor=#9E916F;" parent="1" vertex="1">
          <mxGeometry x="843" y="1348" width="626" height="49" as="geometry" />
        </mxCell>
        <mxCell id="p2viLyyu5a0Ub3dGhguS-34" value="Audio → Speech-SDK → text" style="rounded=0;whiteSpace=wrap;html=1;" vertex="1" parent="1">
          <mxGeometry x="1210" y="530" width="120" height="60" as="geometry" />
        </mxCell>
        <mxCell id="p2viLyyu5a0Ub3dGhguS-37" value="Image → Vision Read OCR → text" style="rounded=0;whiteSpace=wrap;html=1;" vertex="1" parent="1">
          <mxGeometry x="1210" y="610" width="120" height="60" as="geometry" />
        </mxCell>
      </root>
    </mxGraphModel>
  </diagram>
</mxfile>
